{"asset":{"generator":"Khronos glTF Blender I/O v4.0.44","version":"2.0"},"scene":0,"scenes":[{"name":"Scene","nodes":[0]}],"nodes":[{"mesh":0,"name":"shrub_01_a","translation":[0.6002307534217834,0,0]}],"materials":[{"alphaCutoff":0.5,"alphaMode":"MASK","doubleSided":true,"name":"shrub_01","normalTexture":{"index":0},"pbrMetallicRoughness":{"baseColorTexture":{"index":1},"metallicFactor":0,"metallicRoughnessTexture":{"index":2}}}],"meshes":[{"name":"Circle.010","primitives":[{"attributes":{"POSITION":0,"NORMAL":1,"TEXCOORD_0":2},"indices":3,"material":0}]}],"textures":[{"sampler":0,"source":0},{"sampler":0,"source":1},{"sampler":0,"source":2}],"images":[{"mimeType":"image/jpeg","name":"shrub_01_nor_gl","uri":"textures/shrub_01_nor_gl_1k.jpg"},{"mimeType":"image/jpeg","name":"shrub_01_diff","uri":"textures/shrub_01_diff_1k.jpg"},{"mimeType":"image/jpeg","name":"shrub_01_rough","uri":"textures/shrub_01_arm_1k.jpg"}],"accessors":[{"bufferView":0,"componentType":5126,"count":7566,"type":"VEC3","min":[-2.454815626144409,-0.008752564899623394,-0.11381389200687408],"max":[0.13184572756290436,0.38722172379493713,0.10474707186222076]},{"bufferView":1,"componentType":5126,"count":7566,"type":"VEC3"},{"bufferView":2,"componentType":5126,"count":7566,"type":"VEC2"},{"bufferView":3,"componentType":5125,"count":17106,"type":"SCALAR"}],"bufferViews":[{"buffer":0,"byteOffset":0,"byteLength":90792},{"buffer":0,"byteOffset":90792,"byteLength":90792},{"buffer":0,"byteOffset":181584,"byteLength":60528},{"buffer":0,"byteOffset":242112,"byteLength":68424}],"samplers":[{"magFilter":9729,"minFilter":9987}],"buffers":[{"uri":"campaign-tree.bin","byteLength":310536}]}