{"asset":{"version":"2.0","generator":"Chronicle of Crowns COLLADA asset converter","copyright":"The Council of Modders, Fallen Empire Studio, Scion Development; CC BY-SA 3.0; adapted 2026-09-30"},"scenes":[{"nodes":[0,1,2,3,4,5,6,7,8,9,10,11,12,13,14,15]}],"scene":0,"nodes":[{"name":"caro_house_01","mesh":0},{"name":"caro_house_02","mesh":1},{"name":"caro_longhouse","mesh":2},{"name":"caro_civil_centre","mesh":3},{"name":"caro_church","mesh":4},{"name":"caro_abbey","mesh":5},{"name":"caro_fortress_struct","mesh":6},{"name":"caro_fortress_struct_02","mesh":7},{"name":"caro_market","mesh":8},{"name":"caro_blacksmith","mesh":9},{"name":"caro_farmstead","mesh":10},{"name":"caro_stable","mesh":11},{"name":"caro_storehouse","mesh":12},{"name":"caro_wall_long","mesh":13},{"name":"caro_wall_gate","mesh":14},{"name":"caro_wall_tower","mesh":15}],"meshes":[{"name":"caro_house_01","primitives":[{"attributes":{"POSITION":0,"NORMAL":1,"TEXCOORD_0":2,"TEXCOORD_1":3},"material":0}]},{"name":"caro_house_02","primitives":[{"attributes":{"POSITION":4,"NORMAL":5,"TEXCOORD_0":6,"TEXCOORD_1":7},"material":1}]},{"name":"caro_longhouse","primitives":[{"attributes":{"POSITION":8,"NORMAL":9,"TEXCOORD_0":10,"TEXCOORD_1":11},"material":2}]},{"name":"caro_civil_centre","primitives":[{"attributes":{"POSITION":12,"NORMAL":13,"TEXCOORD_0":14,"TEXCOORD_1":15},"material":3}]},{"name":"caro_church","primitives":[{"attributes":{"POSITION":16,"NORMAL":17,"TEXCOORD_0":18,"TEXCOORD_1":19},"material":4}]},{"name":"caro_abbey","primitives":[{"attributes":{"POSITION":20,"NORMAL":21,"TEXCOORD_0":22,"TEXCOORD_1":23},"material":5}]},{"name":"caro_fortress_struct","primitives":[{"attributes":{"POSITION":24,"NORMAL":25,"TEXCOORD_0":26,"TEXCOORD_1":27},"material":6},{"attributes":{"POSITION":28,"NORMAL":29,"TEXCOORD_0":30,"TEXCOORD_1":31},"material":7}]},{"name":"caro_fortress_struct_02","primitives":[{"attributes":{"POSITION":32,"NORMAL":33,"TEXCOORD_0":34,"TEXCOORD_1":35},"material":8}]},{"name":"caro_market","primitives":[{"attributes":{"POSITION":36,"NORMAL":37,"TEXCOORD_0":38,"TEXCOORD_1":39},"material":9},{"attributes":{"POSITION":40,"NORMAL":41,"TEXCOORD_0":42,"TEXCOORD_1":43},"material":10},{"attributes":{"POSITION":44,"NORMAL":45,"TEXCOORD_0":46,"TEXCOORD_1":47},"material":11},{"attributes":{"POSITION":48,"NORMAL":49,"TEXCOORD_0":50,"TEXCOORD_1":51},"material":12}]},{"name":"caro_blacksmith","primitives":[{"attributes":{"POSITION":52,"NORMAL":53,"TEXCOORD_0":54,"TEXCOORD_1":55},"material":13}]},{"name":"caro_farmstead","primitives":[{"attributes":{"POSITION":56,"NORMAL":57,"TEXCOORD_0":58,"TEXCOORD_1":59},"material":14}]},{"name":"caro_stable","primitives":[{"attributes":{"POSITION":60,"NORMAL":61,"TEXCOORD_0":62},"material":15}]},{"name":"caro_storehouse","primitives":[{"attributes":{"POSITION":63,"NORMAL":64,"TEXCOORD_0":65,"TEXCOORD_1":66},"material":16}]},{"name":"caro_wall_long","primitives":[{"attributes":{"POSITION":67,"NORMAL":68,"TEXCOORD_0":69,"TEXCOORD_1":70},"material":17}]},{"name":"caro_wall_gate","primitives":[{"attributes":{"POSITION":71,"NORMAL":72,"TEXCOORD_0":73,"TEXCOORD_1":74},"material":18}]},{"name":"caro_wall_tower","primitives":[{"attributes":{"POSITION":75,"NORMAL":76,"TEXCOORD_0":77,"TEXCOORD_1":78},"material":19}]}],"materials":[{"name":"structural/caro_struct.png","pbrMetallicRoughness":{"baseColorTexture":{"index":0},"metallicFactor":0,"roughnessFactor":0.93},"doubleSided":true,"alphaMode":"OPAQUE","normalTexture":{"index":1,"scale":0.55},"occlusionTexture":{"index":2,"texCoord":1,"strength":0.82}},{"name":"structural/caro_struct.png","pbrMetallicRoughness":{"baseColorTexture":{"index":0},"metallicFactor":0,"roughnessFactor":0.93},"doubleSided":true,"alphaMode":"OPAQUE","normalTexture":{"index":1,"scale":0.55},"occlusionTexture":{"index":3,"texCoord":1,"strength":0.82}},{"name":"structural/caro_struct.png","pbrMetallicRoughness":{"baseColorTexture":{"index":0},"metallicFactor":0,"roughnessFactor":0.93},"doubleSided":true,"alphaMode":"OPAQUE","normalTexture":{"index":1,"scale":0.55},"occlusionTexture":{"index":4,"texCoord":1,"strength":0.82}},{"name":"structural/caro_struct.png","pbrMetallicRoughness":{"baseColorTexture":{"index":0},"metallicFactor":0,"roughnessFactor":0.93},"doubleSided":true,"alphaMode":"OPAQUE","normalTexture":{"index":1,"scale":0.55},"occlusionTexture":{"index":5,"texCoord":1,"strength":0.82}},{"name":"structural/caro_struct_02.png","pbrMetallicRoughness":{"baseColorTexture":{"index":6},"metallicFactor":0,"roughnessFactor":0.93},"doubleSided":true,"alphaMode":"OPAQUE","normalTexture":{"index":7,"scale":0.55},"occlusionTexture":{"index":8,"texCoord":1,"strength":0.82}},{"name":"structural/caro_struct_02.png","pbrMetallicRoughness":{"baseColorTexture":{"index":6},"metallicFactor":0,"roughnessFactor":0.93},"doubleSided":true,"alphaMode":"OPAQUE","normalTexture":{"index":7,"scale":0.55},"occlusionTexture":{"index":9,"texCoord":1,"strength":0.82}},{"name":"structural/caro_struct.png","pbrMetallicRoughness":{"baseColorTexture":{"index":0},"metallicFactor":0,"roughnessFactor":0.93},"doubleSided":true,"alphaMode":"OPAQUE","normalTexture":{"index":1,"scale":0.55},"occlusionTexture":{"index":10,"texCoord":1,"strength":0.82}},{"name":"structural/norse_struct.png","pbrMetallicRoughness":{"baseColorTexture":{"index":11},"metallicFactor":0,"roughnessFactor":0.93},"doubleSided":true,"alphaMode":"OPAQUE","normalTexture":{"index":12,"scale":0.55},"occlusionTexture":{"index":13,"texCoord":1,"strength":0.82}},{"name":"structural/caro_struct.png","pbrMetallicRoughness":{"baseColorTexture":{"index":0},"metallicFactor":0,"roughnessFactor":0.93},"doubleSided":true,"alphaMode":"OPAQUE","normalTexture":{"index":1,"scale":0.55},"occlusionTexture":{"index":14,"texCoord":1,"strength":0.82}},{"name":"structural/caro_struct.png","pbrMetallicRoughness":{"baseColorTexture":{"index":0},"metallicFactor":0,"roughnessFactor":0.93},"doubleSided":true,"alphaMode":"OPAQUE","normalTexture":{"index":1,"scale":0.55},"occlusionTexture":{"index":15,"texCoord":1,"strength":0.82}},{"name":"props/stall_big_cloth.png","pbrMetallicRoughness":{"baseColorTexture":{"index":16},"metallicFactor":0,"roughnessFactor":0.93},"doubleSided":true,"alphaMode":"OPAQUE","normalTexture":{"index":17,"scale":0.55},"occlusionTexture":{"index":15,"texCoord":1,"strength":0.82}},{"name":"props/stall_small_a_cloth.png","pbrMetallicRoughness":{"baseColorTexture":{"index":18},"metallicFactor":0,"roughnessFactor":0.93},"doubleSided":true,"alphaMode":"OPAQUE","normalTexture":{"index":19,"scale":0.55},"occlusionTexture":{"index":15,"texCoord":1,"strength":0.82}},{"name":"structural/ptol_struct.png","pbrMetallicRoughness":{"baseColorTexture":{"index":20},"metallicFactor":0,"roughnessFactor":0.93},"doubleSided":true,"alphaMode":"OPAQUE","normalTexture":{"index":21,"scale":0.55},"occlusionTexture":{"index":15,"texCoord":1,"strength":0.82}},{"name":"structural/caro_struct.png","pbrMetallicRoughness":{"baseColorTexture":{"index":0},"metallicFactor":0,"roughnessFactor":0.93},"doubleSided":true,"alphaMode":"OPAQUE","normalTexture":{"index":1,"scale":0.55},"occlusionTexture":{"index":22,"texCoord":1,"strength":0.82}},{"name":"structural/caro_struct.png","pbrMetallicRoughness":{"baseColorTexture":{"index":0},"metallicFactor":0,"roughnessFactor":0.93},"doubleSided":true,"alphaMode":"OPAQUE","normalTexture":{"index":1,"scale":0.55},"occlusionTexture":{"index":23,"texCoord":1,"strength":0.82}},{"name":"structural/caro_struct.png","pbrMetallicRoughness":{"baseColorTexture":{"index":0},"metallicFactor":0,"roughnessFactor":0.93},"doubleSided":true,"alphaMode":"OPAQUE","normalTexture":{"index":1,"scale":0.55}},{"name":"structural/caro_struct.png","pbrMetallicRoughness":{"baseColorTexture":{"index":0},"metallicFactor":0,"roughnessFactor":0.93},"doubleSided":true,"alphaMode":"OPAQUE","normalTexture":{"index":1,"scale":0.55},"occlusionTexture":{"index":24,"texCoord":1,"strength":0.82}},{"name":"structural/caro_struct.png","pbrMetallicRoughness":{"baseColorTexture":{"index":0},"metallicFactor":0,"roughnessFactor":0.93},"doubleSided":true,"alphaMode":"OPAQUE","normalTexture":{"index":1,"scale":0.55},"occlusionTexture":{"index":25,"texCoord":1,"strength":0.82}},{"name":"structural/caro_struct.png","pbrMetallicRoughness":{"baseColorTexture":{"index":0},"metallicFactor":0,"roughnessFactor":0.93},"doubleSided":true,"alphaMode":"OPAQUE","normalTexture":{"index":1,"scale":0.55},"occlusionTexture":{"index":26,"texCoord":1,"strength":0.82}},{"name":"structural/caro_struct.png","pbrMetallicRoughness":{"baseColorTexture":{"index":0},"metallicFactor":0,"roughnessFactor":0.93},"doubleSided":true,"alphaMode":"OPAQUE","normalTexture":{"index":1,"scale":0.55},"occlusionTexture":{"index":27,"texCoord":1,"strength":0.82}}],"textures":[{"source":0,"sampler":0},{"source":1,"sampler":0},{"source":2,"sampler":0},{"source":3,"sampler":0},{"source":4,"sampler":0},{"source":5,"sampler":0},{"source":6,"sampler":0},{"source":7,"sampler":0},{"source":8,"sampler":0},{"source":9,"sampler":0},{"source":10,"sampler":0},{"source":11,"sampler":0},{"source":12,"sampler":0},{"source":13,"sampler":0},{"source":14,"sampler":0},{"source":15,"sampler":0},{"source":16,"sampler":0},{"source":17,"sampler":0},{"source":18,"sampler":0},{"source":19,"sampler":0},{"source":20,"sampler":0},{"source":21,"sampler":0},{"source":22,"sampler":0},{"source":23,"sampler":0},{"source":24,"sampler":0},{"source":25,"sampler":0},{"source":26,"sampler":0},{"source":27,"sampler":0}],"images":[{"uri":"textures/structural/caro_struct.png"},{"uri":"textures/structural/caro_struct_norm.png"},{"uri":"textures/structural/ao/caro_house_a_ao.png"},{"uri":"textures/structural/ao/caro_house_b_ao.png"},{"uri":"textures/structural/ao/caro_longhouse_ao.png"},{"uri":"textures/structural/ao/caro_civ_center_ao.png"},{"uri":"textures/structural/caro_struct_02.png"},{"uri":"textures/structural/caro_struct_b_norm.png"},{"uri":"textures/structural/ao/caro_church.png"},{"uri":"textures/structural/ao/caro_abbey.png"},{"uri":"textures/structural/ao/caro_fortress_struct_ao.png"},{"uri":"textures/structural/norse_struct.png"},{"uri":"textures/structural/norse_struct_norm.png"},{"uri":"textures/structural/ao/caro_fortress_palisade.png"},{"uri":"textures/structural/ao/caro_lorsch_gate.png"},{"uri":"textures/structural/ao/caro_market.png"},{"uri":"textures/props/stall_big_cloth.png"},{"uri":"textures/props/stall_big_cloth_norm.png"},{"uri":"textures/props/stall_small_a_cloth.png"},{"uri":"textures/props/stall_small_a_cloth_norm.png"},{"uri":"textures/structural/ptol_struct.png"},{"uri":"textures/structural/ptol_struct_norm.png"},{"uri":"textures/structural/ao/caro_blacksmith_ao.png"},{"uri":"textures/structural/ao/caro_farmstead_ao.png"},{"uri":"textures/structural/ao/caro_storehouse_ao.png"},{"uri":"textures/structural/ao/caro_wall_long.png"},{"uri":"textures/structural/ao/caro_wall_gate.png"},{"uri":"textures/structural/ao/caro_wall_tower.png"}],"samplers":[{"magFilter":9729,"minFilter":9987,"wrapS":10497,"wrapT":10497}],"accessors":[{"bufferView":0,"componentType":5126,"count":8040,"type":"VEC3","min":[-7.664511203765869,-5.959729194641113,-4.95225715637207],"max":[7.574292182922363,10.810079574584961,4.955546855926514]},{"bufferView":1,"componentType":5126,"count":8040,"type":"VEC3","min":[-1.0,-1.0,-1.0],"max":[1.0,1.0,1.0]},{"bufferView":2,"componentType":5126,"count":8040,"type":"VEC2","min":[0.009113073348999023,0.03197789937257767],"max":[0.9510776996612549,0.9632487893104553]},{"bufferView":3,"componentType":5126,"count":8040,"type":"VEC2","min":[0.0019460320472717285,0.001945700030773878],"max":[0.9980539083480835,0.9980543255805969]},{"bufferView":4,"componentType":5126,"count":7215,"type":"VEC3","min":[-8.61246109008789,-7.082118034362793,-5.629487991333008],"max":[8.50242805480957,8.492392539978027,5.646213054656982]},{"bufferView":5,"componentType":5126,"count":7215,"type":"VEC3","min":[-1.0,-1.0,-1.0],"max":[1.0,1.0,1.0]},{"bufferView":6,"componentType":5126,"count":7215,"type":"VEC2","min":[0.005493402015417814,0.03197789937257767],"max":[0.9852871894836426,0.9632487893104553]},{"bufferView":7,"componentType":5126,"count":7215,"type":"VEC2","min":[0.001864433055743575,0.001864599995315075],"max":[0.998135507106781,0.9981353878974915]},{"bufferView":8,"componentType":5126,"count":13452,"type":"VEC3","min":[-5.0536417961120605,-4.985201835632324,-11.556719779968262],"max":[4.998779773712158,10.265457153320312,11.284079551696777]},{"bufferView":9,"componentType":5126,"count":13452,"type":"VEC3","min":[-1.0,-1.0,-1.0],"max":[1.0,1.0,1.0]},{"bufferView":10,"componentType":5126,"count":13452,"type":"VEC2","min":[0.0,0.18798920512199402],"max":[0.9510776996612549,1.2187271118164062]},{"bufferView":11,"componentType":5126,"count":13452,"type":"VEC2","min":[0.001864433055743575,0.0018646999960765243],"max":[0.998135507106781,0.9981353878974915]},{"bufferView":12,"componentType":5126,"count":30396,"type":"VEC3","min":[-15.409468650817871,-7.963443756103516,-7.1256537437438965],"max":[15.584195137023926,20.634553909301758,7.355363368988037]},{"bufferView":13,"componentType":5126,"count":30396,"type":"VEC3","min":[-1.0,-1.0,-1.0],"max":[1.0,1.0,1.0]},{"bufferView":14,"componentType":5126,"count":30396,"type":"VEC2","min":[0.0,0.03197789937257767],"max":[1.0,1.2187271118164062]},{"bufferView":15,"componentType":5126,"count":30396,"type":"VEC2","min":[0.0,0.001537499949336052],"max":[0.9984623789787292,1.0]},{"bufferView":16,"componentType":5126,"count":19374,"type":"VEC3","min":[-11.286989212036133,-4.825879096984863,-22.853939056396484],"max":[11.286991119384766,26.33608055114746,23.263280868530273]},{"bufferView":17,"componentType":5126,"count":19374,"type":"VEC3","min":[-1.0,-1.0,-1.0],"max":[1.0,1.0,1.0]},{"bufferView":18,"componentType":5126,"count":19374,"type":"VEC2","min":[0.0,0.0],"max":[1.0,1.0]},{"bufferView":19,"componentType":5126,"count":19374,"type":"VEC2","min":[0.0002600470033939928,0.0002598999999463558],"max":[0.9997400045394897,0.9997400641441345]},{"bufferView":20,"componentType":5126,"count":5205,"type":"VEC3","min":[-10.500079154968262,-0.5436009764671326,-23.50409698486328],"max":[11.575119018554688,20.62228012084961,1.5458358526229858]},{"bufferView":21,"componentType":5126,"count":5205,"type":"VEC3","min":[-1.0,-1.0,-1.0],"max":[1.0,1.0,1.0]},{"bufferView":22,"componentType":5126,"count":5205,"type":"VEC2","min":[0.0,0.0],"max":[1.0,0.9080792665481567]},{"bufferView":23,"componentType":5126,"count":5205,"type":"VEC2","min":[0.0,0.0003659999929368496],"max":[0.9996364116668701,1.0]},{"bufferView":24,"componentType":5126,"count":5931,"type":"VEC3","min":[-7.869949817657471,-5.674674034118652,-6.569672107696533],"max":[7.269268989562988,16.28260040283203,14.815349578857422]},{"bufferView":25,"componentType":5126,"count":5931,"type":"VEC3","min":[-1.0,-1.0,-1.0],"max":[1.0,1.0,1.0]},{"bufferView":26,"componentType":5126,"count":5931,"type":"VEC2","min":[0.00564539385959506,0.01596839912235737],"max":[0.9462524056434631,0.9632487893104553]},{"bufferView":27,"componentType":5126,"count":5931,"type":"VEC2","min":[0.0,0.0005468999734148383],"max":[0.9994515180587769,1.0]},{"bufferView":28,"componentType":5126,"count":5406,"type":"VEC3","min":[-15.714940071105957,-2.359891891479492,-15.66648006439209],"max":[15.713729858398438,7.23898983001709,15.458040237426758]},{"bufferView":29,"componentType":5126,"count":5406,"type":"VEC3","min":[-0.9999988675117493,-0.16440390050411224,-0.9999948740005493],"max":[0.9999899864196777,1.0,0.9999938607215881]},{"bufferView":30,"componentType":5126,"count":5406,"type":"VEC2","min":[0.027882270514965057,0.35496389865875244],"max":[0.8847063183784485,0.8764067888259888]},{"bufferView":31,"componentType":5126,"count":5406,"type":"VEC2","min":[0.0008702650084160268,0.0009222999797202647],"max":[0.9991297721862793,0.9990777373313904]},{"bufferView":32,"componentType":5126,"count":5931,"type":"VEC3","min":[-10.253568649291992,-7.393396377563477,-8.559468269348145],"max":[9.470955848693848,21.214208602905273,19.30256462097168]},{"bufferView":33,"componentType":5126,"count":5931,"type":"VEC3","min":[-1.0,-1.0,-1.0],"max":[1.0,1.0,1.0]},{"bufferView":34,"componentType":5126,"count":5931,"type":"VEC2","min":[0.00564539385959506,0.01596839912235737],"max":[0.9462524056434631,0.9632487893104553]},{"bufferView":35,"componentType":5126,"count":5931,"type":"VEC2","min":[0.0,0.0005468999734148383],"max":[0.9994515180587769,1.0]},{"bufferView":36,"componentType":5126,"count":21714,"type":"VEC3","min":[-13.92632007598877,-7.963438034057617,-10.186088562011719],"max":[12.025010108947754,18.91029930114746,7.415870189666748]},{"bufferView":37,"componentType":5126,"count":21714,"type":"VEC3","min":[-1.0,-1.0,-1.0],"max":[1.0,1.0,1.0]},{"bufferView":38,"componentType":5126,"count":21714,"type":"VEC2","min":[0.0,0.03197789937257767],"max":[1.0,1.0]},{"bufferView":39,"componentType":5126,"count":21714,"type":"VEC2","min":[0.0002829979930538684,0.00028300000121816993],"max":[0.9997169971466064,0.9997169375419617]},{"bufferView":40,"componentType":5126,"count":1839,"type":"VEC3","min":[-5.117251873016357,2.7081780433654785,-9.547661781311035],"max":[11.163069725036621,9.622393608093262,7.075504779815674]},{"bufferView":41,"componentType":5126,"count":1839,"type":"VEC3","min":[-0.9935991168022156,-0.4589162766933441,-1.0],"max":[0.9998621344566345,1.0,1.0]},{"bufferView":42,"componentType":5126,"count":1839,"type":"VEC2","min":[9.28012013901025e-05,9.270000009564683e-05],"max":[0.8614590167999268,0.9999071955680847]},{"bufferView":43,"componentType":5126,"count":1839,"type":"VEC2","min":[0.05645132064819336,0.033663298934698105],"max":[0.9923486113548279,0.9259054064750671]},{"bufferView":44,"componentType":5126,"count":402,"type":"VEC3","min":[-10.51395034790039,2.7952020168304443,5.338932991027832],"max":[-4.994296073913574,4.590268135070801,9.4531831741333]},{"bufferView":45,"componentType":5126,"count":402,"type":"VEC3","min":[-1.0,-0.27027449011802673,-0.8341565132141113],"max":[1.0,1.0,0.9971765875816345]},{"bufferView":46,"componentType":5126,"count":402,"type":"VEC2","min":[8.14656013972126e-05,0.15036840736865997],"max":[0.5960403084754944,0.9999228119850159]},{"bufferView":47,"componentType":5126,"count":402,"type":"VEC2","min":[0.037539951503276825,0.07083799690008163],"max":[0.9914746284484863,0.8644527792930603]},{"bufferView":48,"componentType":5126,"count":15738,"type":"VEC3","min":[-12.909529685974121,-8.195545196533203,-10.115519523620605],"max":[12.476889610290527,5.5403032302856445,10.236550331115723]},{"bufferView":49,"componentType":5126,"count":15738,"type":"VEC3","min":[-1.0,-1.0,-1.0],"max":[1.0,1.0,1.0]},{"bufferView":50,"componentType":5126,"count":15738,"type":"VEC2","min":[0.12170760333538055,0.03392359986901283],"max":[0.9985212087631226,0.9972394108772278]},{"bufferView":51,"componentType":5126,"count":15738,"type":"VEC2","min":[0.0002829979930538684,0.00039080000715330243],"max":[0.9984611868858337,0.9997169375419617]},{"bufferView":52,"componentType":5126,"count":14067,"type":"VEC3","min":[-10.20442008972168,-7.498258113861084,-8.053633689880371],"max":[7.473328113555908,10.104990005493164,9.69823932647705]},{"bufferView":53,"componentType":5126,"count":14067,"type":"VEC3","min":[-1.0,-1.0,-1.0],"max":[1.0,1.0,1.0]},{"bufferView":54,"componentType":5126,"count":14067,"type":"VEC2","min":[-0.005872011184692383,0.022051699459552765],"max":[0.9462524056434631,1.0]},{"bufferView":55,"componentType":5126,"count":14067,"type":"VEC2","min":[0.0017750849947333336,0.001775300013832748],"max":[0.9982249140739441,0.9982247352600098]},{"bufferView":56,"componentType":5126,"count":15144,"type":"VEC3","min":[-13.333218574523926,-6.713820457458496,-10.077555656433105],"max":[12.748619079589844,12.530314445495605,9.353897094726562]},{"bufferView":57,"componentType":5126,"count":15144,"type":"VEC3","min":[-1.0,-1.0,-1.0],"max":[1.0,1.0,1.0]},{"bufferView":58,"componentType":5126,"count":15144,"type":"VEC2","min":[0.009113073348999023,0.029001599177718163],"max":[0.9462524056434631,0.9632487893104553]},{"bufferView":59,"componentType":5126,"count":15144,"type":"VEC2","min":[0.001387297990731895,0.0013877999735996127],"max":[0.9986127018928528,0.9986122846603394]},{"bufferView":60,"componentType":5126,"count":1518,"type":"VEC3","min":[-8.314120292663574,-2.2130684852600098,-9.38574504852295],"max":[11.68313217163086,13.871566772460938,9.466578483581543]},{"bufferView":61,"componentType":5126,"count":1518,"type":"VEC3","min":[-1.0,-1.0,-1.0],"max":[1.0,1.0,1.0]},{"bufferView":62,"componentType":5126,"count":1518,"type":"VEC2","min":[-0.0030545589979737997,0.0002238000015495345],"max":[0.9767330288887024,0.9737203121185303]},{"bufferView":63,"componentType":5126,"count":8658,"type":"VEC3","min":[-5.646214008331299,-4.115653038024902,-8.612458229064941],"max":[5.629489898681641,9.149711608886719,8.650362014770508]},{"bufferView":64,"componentType":5126,"count":8658,"type":"VEC3","min":[-1.0,-1.0,-1.0],"max":[1.0,1.0,1.0]},{"bufferView":65,"componentType":5126,"count":8658,"type":"VEC2","min":[0.003077625995501876,0.046408798545598984],"max":[0.6247403025627136,0.9632487893104553]},{"bufferView":66,"componentType":5126,"count":8658,"type":"VEC2","min":[0.0024696579203009605,0.002469399943947792],"max":[0.9975304007530212,0.9975305795669556]},{"bufferView":67,"componentType":5126,"count":7140,"type":"VEC3","min":[-17.685440063476562,-3.0244879722595215,-3.301990270614624],"max":[17.685440063476562,14.577190399169922,3.3150076866149902]},{"bufferView":68,"componentType":5126,"count":7140,"type":"VEC3","min":[-1.0,-1.0,-1.0],"max":[1.0,1.0,1.0]},{"bufferView":69,"componentType":5126,"count":7140,"type":"VEC2","min":[0.0005718179745599627,0.0029702000319957733],"max":[1.0028690099716187,0.9749665856361389]},{"bufferView":70,"componentType":5126,"count":7140,"type":"VEC2","min":[0.0,0.00036539998836815357],"max":[0.9996348023414612,1.0]},{"bufferView":71,"componentType":5126,"count":10050,"type":"VEC3","min":[-17.685441970825195,-2.008607864379883,-5.6909499168396],"max":[17.685441970825195,22.06279754638672,5.6909499168396]},{"bufferView":72,"componentType":5126,"count":10050,"type":"VEC3","min":[-1.0,-1.0,-1.0],"max":[1.0,1.0,1.0]},{"bufferView":73,"componentType":5126,"count":10050,"type":"VEC2","min":[0.0005718179745599627,0.0],"max":[1.0028690099716187,0.9749665856361389]},{"bufferView":74,"componentType":5126,"count":10050,"type":"VEC2","min":[0.0,0.0002975999959744513],"max":[0.9997022151947021,1.0]},{"bufferView":75,"componentType":5126,"count":2388,"type":"VEC3","min":[-4.437063217163086,-2.988435983657837,-4.435068130493164],"max":[4.463983535766602,23.590909957885742,4.465978145599365]},{"bufferView":76,"componentType":5126,"count":2388,"type":"VEC3","min":[-1.0,-1.0,-1.0],"max":[1.0,1.0,1.0]},{"bufferView":77,"componentType":5126,"count":2388,"type":"VEC2","min":[0.0,0.004700900055468082],"max":[1.0028690099716187,0.9749665856361389]},{"bufferView":78,"componentType":5126,"count":2388,"type":"VEC2","min":[0.0006051359814591706,0.0006179999909363687],"max":[0.9993948936462402,0.9993820190429688]}],"bufferViews":[{"buffer":0,"byteOffset":0,"byteLength":96480},{"buffer":0,"byteOffset":96480,"byteLength":96480},{"buffer":0,"byteOffset":192960,"byteLength":64320},{"buffer":0,"byteOffset":257280,"byteLength":64320},{"buffer":0,"byteOffset":321600,"byteLength":86580},{"buffer":0,"byteOffset":408180,"byteLength":86580},{"buffer":0,"byteOffset":494760,"byteLength":57720},{"buffer":0,"byteOffset":552480,"byteLength":57720},{"buffer":0,"byteOffset":610200,"byteLength":161424},{"buffer":0,"byteOffset":771624,"byteLength":161424},{"buffer":0,"byteOffset":933048,"byteLength":107616},{"buffer":0,"byteOffset":1040664,"byteLength":107616},{"buffer":0,"byteOffset":1148280,"byteLength":364752},{"buffer":0,"byteOffset":1513032,"byteLength":364752},{"buffer":0,"byteOffset":1877784,"byteLength":243168},{"buffer":0,"byteOffset":2120952,"byteLength":243168},{"buffer":0,"byteOffset":2364120,"byteLength":232488},{"buffer":0,"byteOffset":2596608,"byteLength":232488},{"buffer":0,"byteOffset":2829096,"byteLength":154992},{"buffer":0,"byteOffset":2984088,"byteLength":154992},{"buffer":0,"byteOffset":3139080,"byteLength":62460},{"buffer":0,"byteOffset":3201540,"byteLength":62460},{"buffer":0,"byteOffset":3264000,"byteLength":41640},{"buffer":0,"byteOffset":3305640,"byteLength":41640},{"buffer":0,"byteOffset":3347280,"byteLength":71172},{"buffer":0,"byteOffset":3418452,"byteLength":71172},{"buffer":0,"byteOffset":3489624,"byteLength":47448},{"buffer":0,"byteOffset":3537072,"byteLength":47448},{"buffer":0,"byteOffset":3584520,"byteLength":64872},{"buffer":0,"byteOffset":3649392,"byteLength":64872},{"buffer":0,"byteOffset":3714264,"byteLength":43248},{"buffer":0,"byteOffset":3757512,"byteLength":43248},{"buffer":0,"byteOffset":3800760,"byteLength":71172},{"buffer":0,"byteOffset":3871932,"byteLength":71172},{"buffer":0,"byteOffset":3943104,"byteLength":47448},{"buffer":0,"byteOffset":3990552,"byteLength":47448},{"buffer":0,"byteOffset":4038000,"byteLength":260568},{"buffer":0,"byteOffset":4298568,"byteLength":260568},{"buffer":0,"byteOffset":4559136,"byteLength":173712},{"buffer":0,"byteOffset":4732848,"byteLength":173712},{"buffer":0,"byteOffset":4906560,"byteLength":22068},{"buffer":0,"byteOffset":4928628,"byteLength":22068},{"buffer":0,"byteOffset":4950696,"byteLength":14712},{"buffer":0,"byteOffset":4965408,"byteLength":14712},{"buffer":0,"byteOffset":4980120,"byteLength":4824},{"buffer":0,"byteOffset":4984944,"byteLength":4824},{"buffer":0,"byteOffset":4989768,"byteLength":3216},{"buffer":0,"byteOffset":4992984,"byteLength":3216},{"buffer":0,"byteOffset":4996200,"byteLength":188856},{"buffer":0,"byteOffset":5185056,"byteLength":188856},{"buffer":0,"byteOffset":5373912,"byteLength":125904},{"buffer":0,"byteOffset":5499816,"byteLength":125904},{"buffer":0,"byteOffset":5625720,"byteLength":168804},{"buffer":0,"byteOffset":5794524,"byteLength":168804},{"buffer":0,"byteOffset":5963328,"byteLength":112536},{"buffer":0,"byteOffset":6075864,"byteLength":112536},{"buffer":0,"byteOffset":6188400,"byteLength":181728},{"buffer":0,"byteOffset":6370128,"byteLength":181728},{"buffer":0,"byteOffset":6551856,"byteLength":121152},{"buffer":0,"byteOffset":6673008,"byteLength":121152},{"buffer":0,"byteOffset":6794160,"byteLength":18216},{"buffer":0,"byteOffset":6812376,"byteLength":18216},{"buffer":0,"byteOffset":6830592,"byteLength":12144},{"buffer":0,"byteOffset":6842736,"byteLength":103896},{"buffer":0,"byteOffset":6946632,"byteLength":103896},{"buffer":0,"byteOffset":7050528,"byteLength":69264},{"buffer":0,"byteOffset":7119792,"byteLength":69264},{"buffer":0,"byteOffset":7189056,"byteLength":85680},{"buffer":0,"byteOffset":7274736,"byteLength":85680},{"buffer":0,"byteOffset":7360416,"byteLength":57120},{"buffer":0,"byteOffset":7417536,"byteLength":57120},{"buffer":0,"byteOffset":7474656,"byteLength":120600},{"buffer":0,"byteOffset":7595256,"byteLength":120600},{"buffer":0,"byteOffset":7715856,"byteLength":80400},{"buffer":0,"byteOffset":7796256,"byteLength":80400},{"buffer":0,"byteOffset":7876656,"byteLength":28656},{"buffer":0,"byteOffset":7905312,"byteLength":28656},{"buffer":0,"byteOffset":7933968,"byteLength":19104},{"buffer":0,"byteOffset":7953072,"byteLength":19104}],"buffers":[{"uri":"architecture.bin","byteLength":7972176}]}